<?xml version="1.0" encoding="UTF-8"?>
<svg width="1200pt" height="1200pt" version="1.1" viewBox="0 0 1200 1200" xmlns="http://www.w3.org/2000/svg">
 <g>
  <path fill="#c67c00" d="m925 825v-225c0-8.9297-4.7656-17.184-12.5-21.652-7.7344-4.4648-17.266-4.4648-25 0-7.7344 4.4688-12.5 12.723-12.5 21.652v225c0 13.262-5.2695 25.98-14.645 35.355s-22.094 14.645-35.355 14.645h-450c-13.262 0-25.98-5.2695-35.355-14.645s-14.645-22.094-14.645-35.355v-450c0-13.262 5.2695-25.98 14.645-35.355s22.094-14.645 35.355-14.645h225c8.9297 0 17.184-4.7656 21.652-12.5 4.4648-7.7344 4.4648-17.266 0-25-4.4688-7.7344-12.723-12.5-21.652-12.5h-225c-26.523 0-51.957 10.535-70.711 29.289-18.754 18.754-29.289 44.188-29.289 70.711v450c0 26.523 10.535 51.957 29.289 70.711 18.754 18.754 44.188 29.289 70.711 29.289h450c26.523 0 51.957-10.535 70.711-29.289 18.754-18.754 29.289-44.188 29.289-70.711z"/>
  <path fill="#c67c00" d="m925 300c0-6.6289-2.6328-12.988-7.3242-17.676-4.6875-4.6914-11.047-7.3242-17.676-7.3242h-175c-8.9297 0-17.184 4.7656-21.652 12.5-4.4648 7.7344-4.4648 17.266 0 25 4.4688 7.7344 12.723 12.5 21.652 12.5h114.75l-269.75 268.75c-4.7344 4.6953-7.3945 11.086-7.3945 17.75s2.6602 13.055 7.3945 17.75c4.7188 4.6797 11.105 7.2891 17.75 7.25 6.6445 0.039062 13.031-2.5703 17.75-7.25l269.5-269.25v115c0 8.9297 4.7656 17.184 12.5 21.652 7.7344 4.4648 17.266 4.4648 25 0 7.7344-4.4688 12.5-12.723 12.5-21.652z"/>
 </g>
</svg>